<?xml version="1.0" encoding="UTF-8"?>
<svg version="1.1" xmlns="http://www.w3.org/2000/svg" width="512" height="512">
<path d="M0 0 C1.45108658 0.00273422 1.45108658 0.00273422 2.93148804 0.00552368 C17.26440977 0.05095174 31.21023917 0.55983928 45.3125 3.3125 C46.65803955 3.55395752 46.65803955 3.55395752 48.03076172 3.80029297 C107.84088904 14.62287989 165.35495829 48.68064457 202.3125 97.3125 C202.72918945 97.85277832 203.14587891 98.39305664 203.57519531 98.94970703 C211.2584873 108.9447116 218.00092968 119.40459036 224.3125 130.3125 C224.70679199 130.98974121 225.10108398 131.66698242 225.50732422 132.36474609 C238.68961173 155.2833756 247.29510918 180.85822563 252.625 206.6875 C252.77243652 207.39817627 252.91987305 208.10885254 253.07177734 208.84106445 C256.05713787 224.48358366 256.6873098 240.11919606 256.625 256 C256.62226578 257.45108658 256.62226578 257.45108658 256.61947632 258.93148804 C256.57404826 273.26440977 256.06516072 287.21023917 253.3125 301.3125 C253.15152832 302.20952637 252.99055664 303.10655273 252.82470703 304.03076172 C242.00212011 363.84088904 207.94435543 421.35495829 159.3125 458.3125 C158.77222168 458.72918945 158.23194336 459.14587891 157.67529297 459.57519531 C147.6802884 467.2584873 137.22040964 474.00092968 126.3125 480.3125 C125.63525879 480.70679199 124.95801758 481.10108398 124.26025391 481.50732422 C101.3416244 494.68961173 75.76677437 503.29510918 49.9375 508.625 C49.22682373 508.77243652 48.51614746 508.91987305 47.78393555 509.07177734 C32.14141634 512.05713787 16.50580394 512.6873098 0.625 512.625 C-0.34239105 512.62317719 -1.3097821 512.62135437 -2.30648804 512.61947632 C-16.63940977 512.57404826 -30.58523917 512.06516072 -44.6875 509.3125 C-45.58452637 509.15152832 -46.48155273 508.99055664 -47.40576172 508.82470703 C-107.21588904 498.00212011 -164.72995829 463.94435543 -201.6875 415.3125 C-202.10418945 414.77222168 -202.52087891 414.23194336 -202.95019531 413.67529297 C-210.6334873 403.6802884 -217.37592968 393.22040964 -223.6875 382.3125 C-224.08179199 381.63525879 -224.47608398 380.95801758 -224.88232422 380.26025391 C-238.06461173 357.3416244 -246.67010918 331.76677437 -252 305.9375 C-252.14743652 305.22682373 -252.29487305 304.51614746 -252.44677734 303.78393555 C-255.43213787 288.14141634 -256.0623098 272.50580394 -256 256.625 C-255.99817719 255.65760895 -255.99635437 254.6902179 -255.99447632 253.69351196 C-255.94904826 239.36059023 -255.44016072 225.41476083 -252.6875 211.3125 C-252.44604248 209.96696045 -252.44604248 209.96696045 -252.19970703 208.59423828 C-241.37712011 148.78411096 -207.31935543 91.27004171 -158.6875 54.3125 C-158.14722168 53.89581055 -157.60694336 53.47912109 -157.05029297 53.04980469 C-147.0552884 45.3665127 -136.59540964 38.62407032 -125.6875 32.3125 C-125.01025879 31.91820801 -124.33301758 31.52391602 -123.63525391 31.11767578 C-100.7166244 17.93538827 -75.14177437 9.32989082 -49.3125 4 C-48.60182373 3.85256348 -47.89114746 3.70512695 -47.15893555 3.55322266 C-31.51641634 0.56786213 -15.88080394 -0.0623098 0 0 Z " fill="#FE6737" transform="translate(255.6875,-0.3125)"/>
<path d="M0 0 C3.60353843 12.83979226 6.06121365 25.65057067 6.0300293 39.03808594 C6.07010563 52.80197364 8.95301436 63.1896834 14.625 75.625 C15.39179225 77.38186838 16.15466026 79.14045414 16.91381836 80.90063477 C18.47080237 84.49821007 20.04510937 88.08725967 21.63720703 91.66943359 C25.01990106 99.28496915 28.31965407 106.93473775 31.56829834 114.6083374 C32.5382784 116.88075494 33.53161618 119.14181918 34.52783203 121.40283203 C40.70140842 135.68312799 40.70140842 135.68312799 39 143 C37.26640146 146.10151302 35.22983357 148.38508322 32 150 C30.0406396 150.08510205 28.07837206 150.10717656 26.1171875 150.09765625 C24.95058594 150.09443359 23.78398437 150.09121094 22.58203125 150.08789062 C21.35871094 150.07951172 20.13539063 150.07113281 18.875 150.0625 C17.64394531 150.05798828 16.41289062 150.05347656 15.14453125 150.04882812 C12.09630608 150.0370133 9.04817686 150.02054028 6 150 C6.00444122 150.7044223 6.00888245 151.4088446 6.01345825 152.13461304 C6.05373453 158.81260904 6.084085 165.49057053 6.10362434 172.16866112 C6.1140078 175.60093799 6.12806596 179.03311348 6.15087891 182.46533203 C6.17701074 186.42218766 6.18651771 190.37900397 6.1953125 194.3359375 C6.20563507 195.55300385 6.21595764 196.77007019 6.22659302 198.02401733 C6.2282191 210.51545915 4.60034154 222.13635877 -4.0625 231.75 C-11.10663236 238.31208356 -20.34845848 242.13035671 -29.8581543 242.11352539 C-30.55109589 242.11367142 -31.24403748 242.11381744 -31.95797729 242.1139679 C-34.24675637 242.11327163 -36.5354539 242.1054926 -38.82421875 242.09765625 C-40.41176814 242.09579106 -41.99931811 242.09436763 -43.58686829 242.09336853 C-47.7642272 242.08955134 -51.94155131 242.07972786 -56.11889648 242.06866455 C-60.38199391 242.05843328 -64.64509696 242.05386723 -68.90820312 242.04882812 C-77.27215138 242.03810489 -85.63607136 242.02103803 -94 242 C-93.96641136 243.94460617 -93.96641136 243.94460617 -93.93214417 245.92849731 C-93.93528693 250.74229937 -94.42307868 255.3818845 -95.08569336 260.14404297 C-95.20112991 261.00860611 -95.31656647 261.87316925 -95.4355011 262.76393127 C-95.81448475 265.59083291 -96.2019685 268.41649331 -96.58984375 271.2421875 C-96.85692805 273.21748044 -97.12356842 275.19283344 -97.38978577 277.16824341 C-97.94684265 281.29236031 -98.50787436 285.41590962 -99.07202148 289.5390625 C-99.79550638 294.82770135 -100.51111736 300.11736793 -101.22405148 305.40743828 C-101.77329599 309.4791558 -102.32559458 313.55045412 -102.87893867 317.62161636 C-103.14397219 319.57280172 -103.408302 321.52408279 -103.67191887 323.47546005 C-104.03996883 326.1948268 -104.41186609 328.91363894 -104.78491211 331.63232422 C-104.8935257 332.43961472 -105.00213928 333.24690521 -105.11404419 334.07865906 C-105.54222484 337.17451573 -106.00914832 340.02744496 -107 343 C-161.38960223 344.25328419 -217.77120608 319.42835531 -258.80078125 284.83984375 C-260.81943022 283.15106282 -262.87934377 281.55773604 -265 280 C-264.13060045 273.99700311 -262.66965044 268.1410183 -261.25 262.25 C-260.98123047 261.13109375 -260.71246094 260.0121875 -260.43554688 258.859375 C-258.73005905 251.82776562 -256.89086071 244.85307215 -254.89770508 237.8984375 C-253.05619481 231.3925997 -251.49608001 224.8285105 -249.9375 218.25 C-249.67662598 217.17782227 -249.41575195 216.10564453 -249.14697266 215.00097656 C-248.05266724 210.5027065 -246.97740932 206.02486428 -246.15234375 201.46875 C-245.41727674 197.95224852 -244.77491955 195.12289899 -243 192 C-240.08144355 190.11636193 -237.34373531 189.0923767 -234.0390625 188.0390625 C-226.81319914 185.5685231 -223.03845175 180.5821214 -219.5625 174 C-217.81579203 170.32320264 -217.00759705 168.23550853 -216.875 164.125 C-216 161 -216 161 -213.53125 159.52734375 C-211.38863233 158.5329358 -209.23991881 157.55157866 -207.0859375 156.58203125 C-200.13560856 153.01888793 -196.26175784 146.94111352 -193.6484375 139.7265625 C-192.15763081 133.45798979 -192.44727772 127.21088914 -194 121 C-187.07 117.535 -187.07 117.535 -180 114 C-180.928125 111.999375 -181.85625 109.99875 -182.8125 107.9375 C-183.8834907 105.62892004 -184.94574968 103.3162726 -186 101 C-186.55171875 99.88367188 -187.1034375 98.76734375 -187.671875 97.6171875 C-189.25518241 93.3050032 -189.49825827 89.73858387 -189.4375 85.1875 C-189.42992676 84.39359863 -189.42235352 83.59969727 -189.41455078 82.78173828 C-189.11336081 72.03343336 -184.9110708 63.76721731 -177.234375 56.27734375 C-168.67321883 48.70258166 -161.00681734 46.43167207 -149.63671875 46.625 C-140.33733476 47.58390533 -132.11314607 51.94321393 -126 59 C-118.99220451 68.76940966 -116.52231918 77.11002688 -116.8125 89 C-116.82603516 90.06089844 -116.83957031 91.12179687 -116.85351562 92.21484375 C-116.88859121 94.81043687 -116.93774156 97.40494067 -117 100 C-115.26629777 99.87985366 -113.53334991 99.74879659 -111.80078125 99.61328125 C-110.83567627 99.54149658 -109.87057129 99.46971191 -108.8762207 99.39575195 C-104.46546413 98.78885641 -100.87779667 97.11377936 -97 95 C-95.948125 94.443125 -94.89625 93.88625 -93.8125 93.3125 C-88.31892405 88.79555977 -84.79672286 82.863311 -83 76 C-82.98143924 73.66664748 -83.00367133 71.33268465 -83.0625 69 C-82.85546875 65.2734375 -82.85546875 65.2734375 -82 62 C-79.43229268 59.77376671 -76.98694786 58.67254149 -73.8671875 57.34765625 C-68.15927082 54.66477988 -64.98331609 49.93272472 -62.1875 44.4375 C-60.94497283 40.97428529 -60.94497283 40.97428529 -60 37.25 C-59.05612418 34.18240358 -58.48524638 32.92041766 -56 31 C-57.15173355 28.53199953 -58.04783565 26.95216435 -60 25 C-58.98292969 24.97873047 -58.98292969 24.97873047 -57.9453125 24.95703125 C-48.10161263 24.45257572 -41.17546257 21.76010634 -34.5 14.375 C-32.50237302 11.97621023 -30.73382799 9.60074199 -29 7 C-25.9453125 6.4453125 -25.9453125 6.4453125 -22.125 6.125 C-15.61371318 5.46497117 -10.26382795 3.81145003 -4.29296875 1.0234375 C-2 0 -2 0 0 0 Z " fill="#FED763" transform="translate(351,169)"/>
<path d="M0 0 C5.13199705 4.31182967 9.99946677 8.80689923 14.78916931 13.49395752 C15.54244037 14.22802944 16.29571142 14.96210136 17.07180887 15.71841788 C19.58135712 18.1657124 22.08756438 20.61639557 24.59350586 23.06738281 C26.39745875 24.82902775 28.20142433 26.5906597 30.00540161 28.35227966 C45.89935087 43.8846679 61.72503042 59.48640951 77.52537733 75.11396135 C80.25450935 77.81324185 82.98415015 80.51200731 85.71411133 83.21044922 C86.25743532 83.74751864 86.80075931 84.28458806 87.36054767 84.83793232 C96.15314954 93.52657579 104.9920082 102.16663646 113.84933823 110.78923002 C122.96537337 119.66567881 132.03079368 128.59153239 141.05166155 137.56469035 C146.6046044 143.08524076 152.19215782 148.56493017 157.83194012 153.99675849 C162.16251219 158.17595887 166.42028545 162.42254002 170.65658951 166.69749641 C172.39322298 168.42861315 174.15195711 170.13790882 175.93450737 171.82170677 C184.65310534 180.08114505 190.74666503 186.62021013 191.18058926 199.06076217 C191.08174946 204.42049187 190.63155425 209.6793043 190 215 C189.79420573 217.08974557 189.59060686 219.17970871 189.38940334 221.26990128 C188.82927308 226.88980927 187.97355781 232.43805553 187 238 C186.83902832 238.92312988 186.67805664 239.84625977 186.51220703 240.79736328 C175.66189404 300.57310297 141.60761467 358.06087994 93 395 C92.45972168 395.41668945 91.91944336 395.83337891 91.36279297 396.26269531 C81.3677884 403.9459873 70.90790964 410.68842968 60 417 C59.32275879 417.39429199 58.64551758 417.78858398 57.94775391 418.19482422 C32.23664077 432.9832864 3.18919002 442.20391844 -26 447 C-26.67998047 447.11714355 -27.35996094 447.23428711 -28.06054688 447.35498047 C-44.48990474 450.07301337 -61.40855445 449.18571448 -78 449 C-75.47767119 428.5406776 -72.81929234 408.09942795 -70.15838623 387.65777588 C-69.57455587 383.17164686 -68.99141251 378.68542853 -68.40820312 374.19921875 C-67.27278969 365.46606065 -66.13664272 356.73299819 -65 348 C-64.13715393 347.99857498 -63.27430786 347.99714996 -62.38531494 347.99568176 C-54.20661085 347.97776459 -46.02844171 347.93589484 -37.84999466 347.86790943 C-33.64650759 347.83379046 -29.44337812 347.80855318 -25.23974609 347.80444336 C-21.17396161 347.80012767 -17.10898175 347.77139837 -13.0434494 347.72656822 C-11.50157123 347.71369666 -9.95959625 347.70924837 -8.4176712 347.71384621 C4.54262335 347.74345852 15.43388094 345.55784232 25.09375 336.23046875 C33.87744122 325.95283005 34.29140518 313.25944237 34.4140625 300.3359375 C34.43342865 299.06271637 34.4527948 297.78949524 34.4727478 296.47769165 C34.522071 293.12739362 34.56347454 289.77719596 34.60089111 286.42675781 C34.64122672 282.9940446 34.69218257 279.56148981 34.7421875 276.12890625 C34.83780698 269.41937353 34.92297102 262.70977054 35 256 C35.76143311 255.9906543 36.52286621 255.98130859 37.30737305 255.97167969 C40.7680662 255.91789063 44.22742018 255.83425816 47.6875 255.75 C49.48477539 255.72873047 49.48477539 255.72873047 51.31835938 255.70703125 C52.47529297 255.67480469 53.63222656 255.64257812 54.82421875 255.609375 C55.88729248 255.58842773 56.95036621 255.56748047 58.0456543 255.54589844 C61.66843579 254.87648769 63.36545179 253.52609289 66 251 C68.54960789 245.90078423 67.48800638 240.46918222 65.75390625 235.24853516 C64.29168191 231.53565671 62.69526481 227.88309998 61.07427979 224.23718262 C59.97547832 221.75715382 58.90608354 219.26615098 57.84326172 216.77050781 C54.51076145 208.96630666 51.10560089 201.20127722 47.56835938 193.48765564 C37.90580321 172.31943698 33.25161419 154.83906679 33.12792969 131.59521484 C32.89176411 124.95824095 31.42281577 118.66785851 29.8046875 112.25390625 C29 109 29 109 29 106 C27.948125 106.50660156 27.948125 106.50660156 26.875 107.0234375 C14.36462678 112.90467274 14.36462678 112.90467274 7.49609375 113.0546875 C2.42976593 113.08004442 2.42976593 113.08004442 -1.72265625 115.62890625 C-2.71029347 117.01686575 -3.66190132 118.43108408 -4.578125 119.8671875 C-8.25803066 125.38704599 -13.68379953 129.13620314 -20 131 C-26.87937452 132.05236891 -31.69098862 131.74190368 -37.4375 127.625 C-38.19933594 126.99851562 -38.96117187 126.37203125 -39.74609375 125.7265625 C-44.09208532 122.39739738 -48.46450236 121.63128249 -53.8125 120.875 C-54.97394531 120.70742187 -56.13539063 120.53984375 -57.33203125 120.3671875 C-58.65267578 120.18542969 -58.65267578 120.18542969 -60 120 C-58.60781818 117.10499669 -57.04962511 114.40541091 -55.3203125 111.69921875 C-54.80339844 110.88646484 -54.28648437 110.07371094 -53.75390625 109.23632812 C-53.21636719 108.39521484 -52.67882812 107.55410156 -52.125 106.6875 C-48.61540961 101.19255739 -45.18060692 95.69282542 -42 90 C-40.96552734 90.2165625 -40.96552734 90.2165625 -39.91015625 90.4375 C-28.62590476 92.66648795 -19.97873671 93.14658971 -9.953125 86.6796875 C-1.46410446 80.0408381 0.37094784 69.95683584 3 60 C2.33613281 59.86722656 1.67226563 59.73445313 0.98828125 59.59765625 C-7 58 -7 58 -9.56640625 57.44921875 C-17.00877863 56.0754261 -23.01883326 57.31240586 -30 60 C-29.33951685 53.22135711 -28.25308378 46.61769044 -26.9375 39.9375 C-26.75123047 38.97650391 -26.56496094 38.01550781 -26.37304688 37.02539062 C-25.91854438 34.68295469 -25.46081098 32.34120156 -25 30 C-24.27554688 29.90203125 -23.55109375 29.8040625 -22.8046875 29.703125 C-15.18073094 28.52395305 -10.68368959 26.80567548 -5.25 21.125 C-0.54578223 14.59136422 -0.48071544 7.81795106 0 0 Z " fill="#AE4E32" transform="translate(322,63)"/>
<path d="M0 0 C3.18839307 2.48989265 6.13360742 5.14745473 9 8 C12.84534619 6.18632198 16.20137355 3.85991406 19.68359375 1.4375 C26.24928596 -2.63699365 32.43330508 -2.70469801 40 -2 C46.75477088 -0.3556851 52.26200621 2.90116562 57 8 C57 8.33 57 8.66 57 9 C51.72 8.67 46.44 8.34 41 8 C40.9031917 22.96230358 40.9031917 22.96230358 48.3125 35.3125 C53.70891906 38.70094917 58.66673579 40.35374855 65 41 C64.69491271 51.03737191 63.1193116 59.45345566 60 69 C57.99660356 66.51545659 56.03100736 64.04383799 54.1875 61.4375 C49.47141171 56.1824302 43.15732126 54.16871286 36.5625 52.25 C35.83095703 52.02957031 35.09941406 51.80914062 34.34570312 51.58203125 C32.56609915 51.04698692 30.7833632 50.5223777 29 50 C25.76336952 62.11809863 23.72518255 72.58061172 30 84 C34.75822171 91.34849625 41.1305986 93.8767887 49 97 C45.59145268 104.93771295 41.24365322 111.77718469 36.1875 118.75 C35.3063855 119.96598877 35.3063855 119.96598877 34.4074707 121.20654297 C31.27254411 125.46463951 31.27254411 125.46463951 30 127 C29.67 127 29.34 127 29 127 C28.88785156 125.42412109 28.88785156 125.42412109 28.7734375 123.81640625 C27.61246738 110.43494982 23.63732831 103.91252638 13.46484375 94.9453125 C11.07310007 93.05769229 8.64796893 91.50098773 6 90 C-2.16752815 99.80415115 -8.97258428 108.81349751 -8.37890625 122.23828125 C-7.13656902 131.2932547 -3.43508017 137.66370396 3 144 C3.7321875 144.73347656 4.464375 145.46695313 5.21875 146.22265625 C5.8065625 146.80917969 6.394375 147.39570313 7 148 C-15.17794224 165.52374768 -15.17794224 165.52374768 -23 165 C-22.67902344 163.99324219 -22.35804688 162.98648438 -22.02734375 161.94921875 C-18.8799461 150.85108762 -20.98278722 141.06269154 -26 131 C-27.02486848 128.67656639 -28.0125602 126.33974004 -29 124 C-40.79328051 128.6248143 -40.79328051 128.6248143 -51 136 C-51.55171875 136.51046875 -52.1034375 137.0209375 -52.671875 137.546875 C-58.19215081 143.2857756 -61.07491327 150.83001007 -61.5625 158.75 C-61.33986471 164.75147305 -59.13591327 170.28867656 -57.09375 175.875 C-56 179 -56 179 -56 181 C-58.1868216 181.48225331 -60.37449255 181.96065583 -62.5625 182.4375 C-63.78066406 182.70433594 -64.99882812 182.97117188 -66.25390625 183.24609375 C-73.42627604 184.68954252 -80.20835621 185.1559405 -87.5 185.125 C-88.86705078 185.13080078 -88.86705078 185.13080078 -90.26171875 185.13671875 C-95.28259162 185.12947362 -100.05150508 184.85647028 -105 184 C-103.9790625 183.195625 -103.9790625 183.195625 -102.9375 182.375 C-101.4834375 181.199375 -101.4834375 181.199375 -100 180 C-99.44570312 179.61070312 -98.89140625 179.22140625 -98.3203125 178.8203125 C-86.50700853 169.94720863 -84.94338048 154.56231486 -83 141 C-105.81905532 138.58718817 -105.81905532 138.58718817 -126 148 C-134.07132621 155.62784675 -136.93215272 164.31612238 -139 175 C-141.62527971 173.85480395 -144.25023393 172.70887219 -146.875 171.5625 C-147.62136719 171.23701172 -148.36773437 170.91152344 -149.13671875 170.57617188 C-150.20986328 170.10727539 -150.20986328 170.10727539 -151.3046875 169.62890625 C-152.2944458 169.1968689 -152.2944458 169.1968689 -153.30419922 168.75610352 C-154.54991875 168.20067688 -155.78006037 167.60996982 -157 167 C-157.33333333 165 -157.66666667 163 -158 161 C-158.7734375 159.4840625 -158.7734375 159.4840625 -159.5625 157.9375 C-162.52125967 151.36409797 -161.8522808 142.97851799 -159.875 136.1875 C-156.86895554 128.53191949 -151.9320263 123.26586234 -145 119 C-144.34 119 -143.68 119 -143 119 C-143.28875 118.35675781 -143.5775 117.71351563 -143.875 117.05078125 C-147.36326228 108.56025397 -148.70560472 99.79181466 -146.0625 90.8125 C-142.60980556 83.10530056 -135.7221185 76.28905047 -128 73 C-125.63278033 72.46516648 -123.4294791 72.19832482 -121 72 C-121.1546875 70.081875 -121.1546875 70.081875 -121.3125 68.125 C-121.3125 59.9273923 -116.6603657 52.6603657 -111 47 C-102.88833511 40.95832428 -95.98824299 39.68009186 -86 40 C-85.9175 38.845 -85.835 37.69 -85.75 36.5 C-84.8555739 29.46881703 -81.3147691 22.73985418 -76 18 C-69.11472856 13.28844406 -64.05787461 10.85391883 -55.625 10.8125 C-54.31789063 10.79832031 -53.01078125 10.78414062 -51.6640625 10.76953125 C-48.26201037 10.9835196 -46.03316253 11.51855189 -43 13 C-42.62875 11.88818359 -42.62875 11.88818359 -42.25 10.75390625 C-39.43792523 4.55855403 -33.26799233 0.26028812 -27.1875 -2.5 C-17.95392916 -5.70669747 -8.42635684 -4.98730714 0 0 Z " fill="#754C23" transform="translate(215,51)"/>
<path d="M0 0 C0 95.37 0 190.74 0 289 C-11.27705461 287.87229454 -11.27705461 287.87229454 -16.0390625 286.3203125 C-17.63331055 285.80138428 -17.63331055 285.80138428 -19.25976562 285.27197266 C-20.37029297 284.89347168 -21.48082031 284.5149707 -22.625 284.125 C-23.79998047 283.72716309 -24.97496094 283.32932617 -26.18554688 282.91943359 C-55.32907105 272.79123678 -82.206348 257.73028434 -105.80078125 237.83984375 C-107.81943022 236.15106282 -109.87934377 234.55773604 -112 233 C-111.13060045 226.99700311 -109.66965044 221.1410183 -108.25 215.25 C-107.98123047 214.13109375 -107.71246094 213.0121875 -107.43554688 211.859375 C-105.73005905 204.82776562 -103.89086071 197.85307215 -101.89770508 190.8984375 C-100.05619481 184.3925997 -98.49608001 177.8285105 -96.9375 171.25 C-96.67662598 170.17782227 -96.41575195 169.10564453 -96.14697266 168.00097656 C-95.05266724 163.5027065 -93.97740932 159.02486428 -93.15234375 154.46875 C-92.41727674 150.95224852 -91.77491955 148.12289899 -90 145 C-87.08144355 143.11636193 -84.34373531 142.0923767 -81.0390625 141.0390625 C-73.81319914 138.5685231 -70.03845175 133.5821214 -66.5625 127 C-64.81579203 123.32320264 -64.00759705 121.23550853 -63.875 117.125 C-63 114 -63 114 -60.53125 112.52734375 C-58.38863233 111.5329358 -56.23991881 110.55157866 -54.0859375 109.58203125 C-47.13560856 106.01888793 -43.26175784 99.94111352 -40.6484375 92.7265625 C-39.15763081 86.45798979 -39.44727772 80.21088914 -41 74 C-34.07 70.535 -34.07 70.535 -27 67 C-27.928125 64.999375 -28.85625 62.99875 -29.8125 60.9375 C-30.8834907 58.62892004 -31.94574968 56.3162726 -33 54 C-33.55171875 52.88367188 -34.1034375 51.76734375 -34.671875 50.6171875 C-36.25518241 46.3050032 -36.49825827 42.73858387 -36.4375 38.1875 C-36.42992676 37.39359863 -36.42235352 36.59969727 -36.41455078 35.78173828 C-36.11336081 25.03343336 -31.9110708 16.76721731 -24.234375 9.27734375 C-16.66747997 2.58228662 -10.30691343 0 0 0 Z " fill="#FEEBB2" transform="translate(198,216)"/>
<path d="M0 0 C0.99 4.455 0.99 4.455 2 9 C2.99 8.34 3.98 7.68 5 7 C11.46593851 3.67332149 18.94072945 4.69158527 26 5 C26.40227406 14.77376966 26.61791941 22.33896863 19.8125 29.8125 C14.01699375 35.15656681 8.75328929 36.15842057 1 36 C0.51963783 39.33316217 0.04093096 42.66656013 -0.4375 46 C-0.63956055 47.40185547 -0.63956055 47.40185547 -0.84570312 48.83203125 C-1.6175 54.21578507 -2.34420885 59.60086513 -3 65 C-1.865625 64.505 -0.73125 64.01 0.4375 63.5 C10.32953241 59.89819726 19.32181382 63.14372371 29 66 C28.15138457 77.24415447 24.64602226 86.46605669 16 94 C6.37590481 100.29401878 -2.99717967 99.59314969 -13.91015625 97.4375 C-14.59980469 97.293125 -15.28945313 97.14875 -16 97 C-16.81791016 98.50626953 -16.81791016 98.50626953 -17.65234375 100.04296875 C-22.62152667 109.09036998 -27.9429535 117.63755282 -34 126 C-32.76636719 126.02126953 -32.76636719 126.02126953 -31.5078125 126.04296875 C-17.7957046 126.62882093 -10.15835641 132.13557872 0 141 C-1.20381448 143.49361571 -2.45428722 145.68143083 -4 148 C-4.45225893 149.55257181 -4.86534211 151.11681363 -5.25 152.6875 C-7.80066988 161.40546124 -13.28848275 167.33445777 -21 172 C-22.65269971 172.70057541 -24.31697111 173.37579171 -26 174 C-26.02578125 174.90621094 -26.0515625 175.81242188 -26.078125 176.74609375 C-26.43152625 184.33618883 -27.11539569 190.4159249 -31 197 C-31.34933594 197.62390625 -31.69867188 198.2478125 -32.05859375 198.890625 C-35.85170329 204.92810039 -41.54866732 208.34936263 -47.875 211.375 C-50.93722485 211.98744497 -53.58096892 212.06199581 -56.6953125 212.0390625 C-57.68805176 212.03342285 -58.68079102 212.0277832 -59.70361328 212.02197266 C-60.4614209 212.01472168 -61.21922852 212.0074707 -62 212 C-62.00410889 211.36610352 -62.00821777 210.73220703 -62.01245117 210.07910156 C-61.92525811 192.83051052 -61.92525811 192.83051052 -68 177 C-68.50660156 176.175 -69.01320312 175.35 -69.53515625 174.5 C-74.68906275 167.09202091 -82.2156774 162.14727886 -91 160 C-93.32694964 159.62468554 -95.65976685 159.28082798 -98 159 C-95.15978713 155.96070678 -92.29840198 153.78445606 -88.75 151.625 C-83.96327056 148.65016009 -79.43735962 145.47105781 -75 142 C-76.0209375 141.0409375 -76.0209375 141.0409375 -77.0625 140.0625 C-84.81130834 132.22538616 -89.92704349 124.85504326 -90.4375 113.625 C-90.08402008 104.19886892 -86.51688556 97.19858214 -80.9375 89.8125 C-80.50195801 89.23516113 -80.06641602 88.65782227 -79.61767578 88.06298828 C-78.33984375 86.45703125 -78.33984375 86.45703125 -76 84 C-69.89531169 84 -64.86816326 90.19139228 -60.671875 94.25390625 C-53.44679644 101.94727694 -51.61725489 108.61309008 -51 119 C-44.05591335 110.43372917 -38.21533533 101.71683984 -33 92 C-33.7734375 91.67128906 -34.546875 91.34257812 -35.34375 91.00390625 C-44.26048285 86.93178444 -51.33920832 82.05533432 -55 72.625 C-57.69780466 62.4332935 -55.46535227 53.73083295 -52 44 C-42.36782704 44.55570229 -32.80914277 48.02062866 -26 55 C-24.5302285 56.95045149 -23.26681965 58.90487519 -22 61 C-17.51672307 53.3143824 -17.13861111 43.6243735 -16 35 C-17.57587891 35.061875 -17.57587891 35.061875 -19.18359375 35.125 C-25.40867769 34.92110779 -30.5908436 32.49658546 -34.9375 27.9921875 C-38.16481072 23.78737402 -40.13831664 20.39611366 -40.09765625 14.98828125 C-40.09443359 14.23095703 -40.09121094 13.47363281 -40.08789062 12.69335938 C-40.07532227 11.51483398 -40.07532227 11.51483398 -40.0625 10.3125 C-40.05798828 9.51521484 -40.05347656 8.71792969 -40.04882812 7.89648438 C-40.0370585 5.93095743 -40.01912348 3.96546915 -40 2 C-31.42761687 1.56737506 -24.26971497 2.15352336 -17 7 C-16.67 5.35 -16.34 3.7 -16 2 C-13.89627599 1.66388432 -11.79200343 1.33120054 -9.6875 1 C-8.51574219 0.814375 -7.34398437 0.62875 -6.13671875 0.4375 C-3 0 -3 0 0 0 Z " fill="#FDBF00" transform="translate(296,57)"/>
<path d="M0 0 C3.05842901 0.53211896 5.6590987 1.68620608 8.44140625 3.03125 C9.27220703 3.42957031 10.10300781 3.82789063 10.95898438 4.23828125 C11.81814453 4.65464844 12.67730469 5.07101563 13.5625 5.5 C15.271394 6.32445521 16.98100025 7.14743616 18.69140625 7.96875 C19.44623291 8.33419922 20.20105957 8.69964844 20.97875977 9.07617188 C23.12796466 10.1019633 23.12796466 10.1019633 26 11 C25.97381592 11.60360352 25.94763184 12.20720703 25.9206543 12.82910156 C25.41177656 26.34592495 25.19472857 37.62389255 33.6875 48.875 C41.49196421 57.10187078 51.52617864 59.9070849 62.4375 61.125 C63.16904297 61.21136719 63.90058594 61.29773438 64.65429688 61.38671875 C66.43560094 61.59628393 68.21772281 61.79887868 70 62 C72.6798555 42.7142825 72.6798555 42.7142825 67.09375 24.75 C66 23 66 23 66 21 C66.75917725 20.98541748 67.51835449 20.97083496 68.30053711 20.95581055 C81.70667816 20.66876069 94.81846658 20.36757291 107.97265625 17.62109375 C111 17 111 17 114 17 C114.01417969 17.94359375 114.02835937 18.8871875 114.04296875 19.859375 C114.37936198 28.91471707 115.87967453 35.79528212 120 44 C120.60328125 45.24716797 120.60328125 45.24716797 121.21875 46.51953125 C122.12071107 48.35888758 123.05597344 50.18187478 124 52 C119.46330032 55.01679014 115.31027254 57.53967505 110 59 C110.15726562 59.5465625 110.31453125 60.093125 110.4765625 60.65625 C112.59252281 70.13069916 110.83748389 78.68704225 106 87 C101.49055167 92.99952691 96.15886757 96.7424318 89 99 C88.34 99 87.68 99 87 99 C87.12375 99.9075 87.2475 100.815 87.375 101.75 C87.35993645 109.16126523 82.58030437 116.69565134 77.6875 122 C72.88008954 126.38008508 67.22491277 128.44377181 61 130 C60.01 133.96 59.02 137.92 58 142 C54.61087446 140.30543723 53.08750373 139.32283911 50.57421875 136.734375 C49.94193359 136.09113281 49.30964844 135.44789063 48.65820312 134.78515625 C48.00787109 134.11355469 47.35753906 133.44195312 46.6875 132.75 C42.97887813 128.94033596 39.32066311 125.20608641 35.19921875 121.83984375 C32.3512202 119.44927907 30.66906048 117.24670348 29.125 113.8125 C28.73570313 112.97332031 28.34640625 112.13414062 27.9453125 111.26953125 C26.24755718 107.19351538 25.86484666 104.08897309 25.875 99.6875 C25.87242188 98.57761719 25.86984375 97.46773438 25.8671875 96.32421875 C26 93 26 93 26.7265625 89.83203125 C27.30251059 86.97272182 27.30251059 86.97272182 25.59375 84.875 C24.9028125 84.25625 24.211875 83.6375 23.5 83 C22.76265625 82.319375 22.0253125 81.63875 21.265625 80.9375 C19.8769622 79.74995388 18.47367642 78.57894114 17.046875 77.4375 C11.55095933 73.04076746 8.32707317 67.9859135 7 61 C6.48719059 52.99228385 6.55171382 46.29445154 10 39 C10.391875 38.01 10.78375 37.02 11.1875 36 C11.455625 35.34 11.72375 34.68 12 34 C11.401875 33.73058594 10.80375 33.46117187 10.1875 33.18359375 C3.96645271 29.8175628 0.79937887 23.55497018 -1.3828125 17.0625 C-2.46797315 11.67790537 -1.96238962 6.37951119 -1 1 C-0.67 0.67 -0.34 0.34 0 0 Z " fill="#764C24" transform="translate(48,231)"/>
<path d="M0 0 C3.37948625 1.68974312 4.15191618 5.53031672 5.5625 8.875 C6.03719727 9.97521484 6.03719727 9.97521484 6.52148438 11.09765625 C10.2145338 19.70693071 11.52860283 28.36956353 9.38671875 37.66015625 C8.14823089 40.57905936 7.0543769 42.42382501 4.234375 43.96484375 C2.88564129 44.45601646 1.52057052 44.90402823 0.14453125 45.3125 C-8.61326149 48.1200984 -15.1199937 55.07972047 -19.3125 63.0625 C-20.95512252 66.62269045 -22.05007007 70.20028029 -23 74 C-24.83169318 74.48539869 -26.66546059 74.96297186 -28.5 75.4375 C-29.5209375 75.70433594 -30.541875 75.97117187 -31.59375 76.24609375 C-40.25567374 78.16323972 -48.65748993 78.12091089 -57.5 78.0625 C-58.799375 78.05798828 -60.09875 78.05347656 -61.4375 78.04882812 C-64.62504825 78.0371092 -67.81249955 78.02070219 -71 78 C-70.57195068 78.75966064 -70.14390137 79.51932129 -69.70288086 80.30200195 C-66.20143379 86.82990742 -64.08507348 91.77373634 -64.5625 99.1875 C-64.58771729 99.95707031 -64.61293457 100.72664063 -64.63891602 101.51953125 C-64.72123125 103.68403213 -64.84843289 105.83937371 -65 108 C-65.06960937 109.01707031 -65.13921875 110.03414063 -65.2109375 111.08203125 C-65.71135686 116.42271372 -65.71135686 116.42271372 -67 119 C-80.84742212 118.65251136 -92.66147179 117.23776282 -103 107 C-109.60674171 98.96203853 -112.52584668 91.09425059 -112.25 80.75 C-112.24484375 79.96109375 -112.2396875 79.1721875 -112.234375 78.359375 C-112.18524835 74.72400306 -111.9812373 71.51790287 -111 68 C-111.97259766 67.87044922 -111.97259766 67.87044922 -112.96484375 67.73828125 C-117.0937034 66.73396404 -120.73135434 64.99948391 -124.5625 63.1875 C-125.31724609 62.84396484 -126.07199219 62.50042969 -126.84960938 62.14648438 C-130.90889136 60.24023125 -134.04545498 58.4874603 -137 55 C-132.35036496 46.3649635 -132.35036496 46.3649635 -129 44 C-124.21093477 44.3806338 -120.42746968 45.99907066 -116.125 48.0625 C-114.97257812 48.61035156 -113.82015625 49.15820312 -112.6328125 49.72265625 C-111.76398438 50.14417969 -110.89515625 50.56570312 -110 51 C-109.78085938 50.09378906 -109.56171875 49.18757813 -109.3359375 48.25390625 C-106.12346196 35.91329897 -101.11492715 26.4523837 -89.8515625 19.71484375 C-78.24488824 13.69576918 -65.46775087 15.68041844 -53 18 C-54.13017758 33.18148983 -56.01097252 46.30524254 -68 57 C-69.64083803 58.04183892 -71.30219648 59.05382825 -73 60 C-58.01968553 63.80647335 -40.92608061 60.54060947 -26 58 C-26.52400391 56.66195312 -26.52400391 56.66195312 -27.05859375 55.296875 C-27.51363281 54.12640625 -27.96867187 52.9559375 -28.4375 51.75 C-28.88996094 50.58984375 -29.34242188 49.4296875 -29.80859375 48.234375 C-33.03236092 39.48263986 -32.95333518 31.46441568 -29.45703125 22.7421875 C-23.29775495 11.15019833 -12.07480173 4.2688693 0 0 Z " fill="#FDDA00" transform="translate(185,174)"/>
<path d="M0 0 C11.56592187 0 17.92214168 3.96116515 26 12 C29.84534619 10.18632198 33.20137355 7.85991406 36.68359375 5.4375 C43.24928596 1.36300635 49.43330508 1.29530199 57 2 C63.75477088 3.6443149 69.26200621 6.90116562 74 12 C74 12.33 74 12.66 74 13 C68.72 12.67 63.44 12.34 58 12 C57.9031917 26.96230358 57.9031917 26.96230358 65.3125 39.3125 C70.70891906 42.70094917 75.66673579 44.35374855 82 45 C81.69491271 55.03737191 80.1193116 63.45345566 77 73 C74.99660356 70.51545659 73.03100736 68.04383799 71.1875 65.4375 C66.47141171 60.1824302 60.15732126 58.16871286 53.5625 56.25 C52.46518555 55.91935547 52.46518555 55.91935547 51.34570312 55.58203125 C49.56609915 55.04698692 47.7833632 54.5223777 46 54 C42.76336952 66.11809863 40.72518255 76.58061172 47 88 C51.75822171 95.34849625 58.1305986 97.8767887 66 101 C62.59145268 108.93771295 58.24365322 115.77718469 53.1875 122.75 C52.60009033 123.56065918 52.01268066 124.37131836 51.4074707 125.20654297 C48.27254411 129.46463951 48.27254411 129.46463951 47 131 C46.67 131 46.34 131 46 131 C45.92523438 129.94941406 45.85046875 128.89882812 45.7734375 127.81640625 C44.61246738 114.43494982 40.63732831 107.91252638 30.46484375 98.9453125 C28.07310007 97.05769229 25.64796893 95.50098773 23 94 C14.83247185 103.80415115 8.02741572 112.81349751 8.62109375 126.23828125 C9.86343098 135.2932547 13.56491983 141.66370396 20 148 C20.7321875 148.73347656 21.464375 149.46695313 22.21875 150.22265625 C22.8065625 150.80917969 23.394375 151.39570313 24 152 C22.07032197 153.55233241 20.13198198 155.09138596 18.1875 156.625 C17.65962891 157.05167969 17.13175781 157.47835937 16.58789062 157.91796875 C11.25136372 162.09980855 6.20097205 164.61765161 0 168 C0 112.56 0 57.12 0 0 Z " fill="#613813" transform="translate(198,47)"/>
<path d="M0 0 C4.04489013 3.34749528 5.59114161 7.06899565 7 12 C7 12.66 7 13.32 7 14 C8.2375 13.9175 9.475 13.835 10.75 13.75 C20.98604544 13.79820744 30.48651513 18.18968356 38 25 C40.74538116 28.13532013 42.9372961 31.38342896 45 35 C45.43441406 35.75925781 45.86882812 36.51851562 46.31640625 37.30078125 C50.22821751 45.41063386 50.36216735 55.25287821 48.3046875 63.93359375 C47.37579485 66.43535925 46.30852746 68.67553507 45 71 C44.34644531 72.16789062 44.34644531 72.16789062 43.6796875 73.359375 C37.73506165 83.03969469 29.93877806 88.84922537 19 92 C16.37997506 92.31534904 13.75414881 92.58544888 11.125 92.8125 C6.13559471 93.24199574 6.13559471 93.24199574 1.9609375 95.68359375 C0.4726506 97.72454876 0.4726506 97.72454876 -0.75390625 99.90234375 C-4.08051195 105.50230381 -9.87118037 109.19149585 -16 111 C-22.87937452 112.05236891 -27.69098862 111.74190368 -33.4375 107.625 C-34.19933594 106.99851562 -34.96117187 106.37203125 -35.74609375 105.7265625 C-40.09208532 102.39739738 -44.46450236 101.63128249 -49.8125 100.875 C-50.97394531 100.70742187 -52.13539063 100.53984375 -53.33203125 100.3671875 C-54.65267578 100.18542969 -54.65267578 100.18542969 -56 100 C-54.60781818 97.10499669 -53.04962511 94.40541091 -51.3203125 91.69921875 C-50.80339844 90.88646484 -50.28648437 90.07371094 -49.75390625 89.23632812 C-48.94759766 87.9746582 -48.94759766 87.9746582 -48.125 86.6875 C-44.61540961 81.19255739 -41.18060692 75.69282542 -38 70 C-37.31035156 70.144375 -36.62070312 70.28875 -35.91015625 70.4375 C-24.62590476 72.66648795 -15.97873671 73.14658971 -5.953125 66.6796875 C2.53589554 60.0408381 4.37094784 49.95683584 7 40 C6.33613281 39.86722656 5.67226563 39.73445313 4.98828125 39.59765625 C-3 38 -3 38 -5.56640625 37.44921875 C-13.00877863 36.0754261 -19.01883326 37.31240586 -26 40 C-25.33951685 33.22135711 -24.25308378 26.61769044 -22.9375 19.9375 C-22.75123047 18.97650391 -22.56496094 18.01550781 -22.37304688 17.02539062 C-21.91854438 14.68295469 -21.46081098 12.34120156 -21 10 C-20.27554688 9.90203125 -19.55109375 9.8040625 -18.8046875 9.703125 C-10.65896385 8.44325307 -5.68022299 6.11716322 0 0 Z " fill="#603813" transform="translate(318,83)"/>
<path d="M0 0 C0.89684329 2.47483338 1.07680043 3.74046753 0.3203125 6.296875 C-3.5334934 14.205993 -8.85617683 20.42117752 -17.0625 24 C-18.031875 24.33 -19.00125 24.66 -20 25 C-20.03867187 26.35931641 -20.03867187 26.35931641 -20.078125 27.74609375 C-20.43152625 35.33618883 -21.11539569 41.4159249 -25 48 C-25.34933594 48.62390625 -25.69867188 49.2478125 -26.05859375 49.890625 C-29.85170329 55.92810039 -35.54866732 59.34936263 -41.875 62.375 C-44.93722485 62.98744497 -47.58096892 63.06199581 -50.6953125 63.0390625 C-51.68805176 63.03342285 -52.68079102 63.0277832 -53.70361328 63.02197266 C-54.84032471 63.01109619 -54.84032471 63.01109619 -56 63 C-56.00410889 62.36610352 -56.00821777 61.73220703 -56.01245117 61.07910156 C-56.21325451 43.3891311 -57.85796996 30.37097586 -70.7109375 17.25390625 C-71.13632813 16.84011719 -71.56171875 16.42632812 -72 16 C-69.94005539 14.39245904 -67.87719524 12.7889195 -65.8125 11.1875 C-64.9452832 10.50977539 -64.9452832 10.50977539 -64.06054688 9.81835938 C-60.81747919 7.30818834 -57.57686912 5.02756611 -54 3 C-53.17757812 3.61488281 -52.35515625 4.22976562 -51.5078125 4.86328125 C-42.90237668 11.15321379 -34.2006386 16.73699743 -23 15 C-13.1258771 12.84638472 -5.66834243 8.50251365 0 0 Z " fill="#613913" transform="translate(290,206)"/>
<path d="M0 0 C0.53367187 0.20496094 1.06734375 0.40992188 1.6171875 0.62109375 C7.41395572 2.717157 12.85732066 3.62810501 19 4 C18 12.57142857 18 12.57142857 17 16 C14.08462499 14.68285542 12.0152987 13.26341874 9.765625 10.99609375 C9.19199219 10.42052734 8.61835937 9.84496094 8.02734375 9.25195312 C7.44082031 8.65318359 6.85429688 8.05441406 6.25 7.4375 C5.64800781 6.83486328 5.04601562 6.23222656 4.42578125 5.61132812 C0 1.14038584 0 1.14038584 0 0 Z " fill="#AF5235" transform="translate(89,357)"/>
<path d="M0 0 C1.98 1.65 3.96 3.3 6 5 C4.68799596 6.35432675 3.35368596 7.68733482 2 9 C1.67 9 1.34 9 1 9 C0.67 6.03 0.34 3.06 0 0 Z " fill="#B35230" transform="translate(296,58)"/>
<path d="M0 0 C2.9375 0.75 2.9375 0.75 6 2 C6.875 4.125 6.875 4.125 7 6 C3.63279613 4.60667426 2.0140476 3.0210714 0 0 Z " fill="#AB4E31" transform="translate(70,312)"/>
</svg>
